<mxfile host="app.diagrams.net" modified="2021-09-29T14:46:55.495Z" agent="5.0 (Windows NT 6.1; Win64; x64) AppleWebKit/537.36 (KHTML, like Gecko) Chrome/94.0.4606.61 Safari/537.36" etag="ganT3kzE_Mkhf9d_z3OZ" version="15.3.7" type="github">
  <diagram id="K_SzrJzUoVljaltMVENt" name="Page-1">
    <mxGraphModel dx="1422" dy="794" grid="1" gridSize="10" guides="1" tooltips="1" connect="1" arrows="1" fold="1" page="1" pageScale="1" pageWidth="827" pageHeight="1169" math="0" shadow="0">
      <root>
        <mxCell id="0" />
        <mxCell id="1" parent="0" />
        <mxCell id="kecWiiWxdJJ5eOKXqyP--1" value="Start" style="rounded=1;whiteSpace=wrap;html=1;fontSize=15;fontStyle=1" vertex="1" parent="1">
          <mxGeometry x="360" y="50" width="120" height="60" as="geometry" />
        </mxCell>
        <mxCell id="kecWiiWxdJJ5eOKXqyP--2" value="&lt;div style=&quot;font-size: 15px;&quot;&gt;&lt;div style=&quot;font-size: 15px;&quot;&gt;|\_/|&lt;/div&gt;&lt;div style=&quot;font-size: 15px;&quot;&gt;|q p|&amp;nbsp; &amp;nbsp;/}&lt;/div&gt;&lt;div style=&quot;font-size: 15px;&quot;&gt;( 0 )&quot;&quot;&quot;\&lt;/div&gt;&lt;div style=&quot;font-size: 15px;&quot;&gt;|&quot;^&quot;`&amp;nbsp; &amp;nbsp; |&lt;/div&gt;&lt;div style=&quot;font-size: 15px;&quot;&gt;||_/=\\__|&lt;/div&gt;&lt;/div&gt;" style="shape=parallelogram;perimeter=parallelogramPerimeter;whiteSpace=wrap;html=1;fixedSize=1;spacing=35;align=left;fontSize=15;fontStyle=1" vertex="1" parent="1">
          <mxGeometry x="360" y="170" width="120" height="100" as="geometry" />
        </mxCell>
        <mxCell id="kecWiiWxdJJ5eOKXqyP--5" value="" style="endArrow=classic;html=1;fontSize=15;" edge="1" parent="1">
          <mxGeometry width="50" height="50" relative="1" as="geometry">
            <mxPoint x="420" y="120" as="sourcePoint" />
            <mxPoint x="420" y="160" as="targetPoint" />
          </mxGeometry>
        </mxCell>
      </root>
    </mxGraphModel>
  </diagram>
</mxfile>
